<svg xmlns="http://www.w3.org/2000/svg" viewBox="0 0 300 300" preserveAspectRatio="xMidYMid meet"><path fill="#29548a" d="M233.948 48.778C260.89 71.978 278.196 104.303 281 140c1.975 36.026-9.064 70.663-33.116 97.766C234.46 252.494 219.056 262.817 201 271l-3.23 1.465c-31.787 13.254-68.33 10.911-99.762-1.805-33.018-13.942-56.745-40.457-70.473-73.149-12.875-33.928-11.11-70.507 3.54-103.51 14.917-32.065 41.99-55.3 74.8-67.75 43.536-14.763 92.503-7.124 128.073 22.527M99 46c3.825 9.504 8.106 18.751 12.5 28l4.27 9.023 1.077 2.278q3.499 7.412 6.914 14.863l.89 1.934a2200 2200 0 0 1 4.1 8.968c5.022 11.458 5.022 11.458 13.374 20.496 3.842 3.146 5.342 5.744 6.875 10.438h2l1.5-3.563c1.647-3.34 3.207-5.174 6.187-7.375 12.331-10.32 17.868-30.894 24.36-45.32 3.887-8.637 7.874-17.227 11.89-25.805l.937-2.002Q198.434 52.467 201 47c-2.702-2.702-5.857-3.643-9.375-4.938-.717-.266-1.434-.53-2.172-.805C159.438 30.353 127.9 33.32 99 46m-11 7c1.85 5.857 3.965 11.466 6.527 17.047l1.034 2.283c1.121 2.475 2.25 4.947 3.376 7.42a9429 9429 0 0 1 6.125 13.512 2295 2295 0 0 1 9.4 21.097c.447 1.017.896 2.034 1.358 3.082 3.556 8.061 3.556 8.061 5.281 12.004q1.828 4.172 3.668 8.336l1.075 2.473c3.02 6.813 6.278 13.708 12.156 18.496l2.07 1.73a134 134 0 0 0 4.805 3.582c2.636 2.404 3.271 4.521 4.125 7.938h2c.29-.99.577-1.98.875-3 1.957-4.658 5.553-7.016 9.554-9.91 6.736-5.477 9.654-11.976 13.133-19.778l1.588-3.502c1.627-3.599 3.24-7.204 4.85-10.81l1.418-3.162a2650 2650 0 0 0 7.062-15.9 1463 1463 0 0 1 7.236-16.125c1.785-3.93 3.557-7.865 5.327-11.802q1.329-2.941 2.674-5.876c1.262-2.756 2.505-5.52 3.744-8.288l1.175-2.528 1.037-2.346c.46-1.01.46-1.01.927-2.042.585-1.996.585-1.996-.353-4.102-1.68-2.464-3.458-2.949-6.247-3.829-5.508 10.45-10.048 21.361-14.759 32.185q-1.806 4.15-3.616 8.3l-1.198 2.745a662 662 0 0 1-7.24 15.973l-1.685 3.631a397 397 0 0 1-3.06 6.415c-3.066 6.62-4.06 12.377-4.28 19.67-.347 6.612-2.953 11.704-7.428 16.534-4.037 3.6-7.809 5.478-13.234 5.672-6.429-2.067-11.874-6.407-15.5-12.125-1.853-4.584-2.062-8.523-2.21-13.453-.537-7.696-2.865-13.492-6.228-20.36-.872-1.848-1.735-3.699-2.599-5.55q-.936-2.005-1.879-4.006c-4.417-9.39-8.505-18.929-12.647-28.444a6890 6890 0 0 0-4.566-10.457l-1.006-2.314C99.725 58.528 97.42 53.756 95 49c-2.392 0-5.085 2.696-7 4m-11 7c1.863 5.835 3.948 11.495 6.38 17.117l.981 2.297 2.101 4.901c1.911 4.446 3.81 8.898 5.71 13.35l1.2 2.807c3.978 9.327 7.891 18.681 11.796 28.04q1.71 4.09 3.425 8.18l2.227 5.312 1.087 2.592c1.952 4.662 3.89 9.33 5.805 14.006q1.226 2.982 2.466 5.957a657 657 0 0 1 2.856 6.971c3.702 8.826 8.23 15.398 16.716 20.157 4.072 2.292 6.171 4.087 8.25 8.313.687 2.812.687 2.812 1 5h2l.304-1.723c1.28-5.248 2.866-7.856 7.383-10.902l2.45-1.477c7.982-5.293 12.172-10.258 15.738-19.148l1.357-3.226a939 939 0 0 0 3.048-7.345c1.893-4.612 3.825-9.208 5.76-13.804a6791 6791 0 0 0 7.912-18.904 4601 4601 0 0 1 11.325-26.932l1.314-3.098c3.39-7.995 3.39-7.995 5.091-11.987q1.754-4.12 3.501-8.243l1.04-2.429C219.415 70.598 221.297 65.364 223 60l-7-4c-7.635 18.05-15.145 36.145-22.455 54.33-2.946 7.321-5.927 14.62-9.057 21.865-4.915 11.421-9.38 22.135-11 34.535-.654 4.38-1.956 7.666-4.488 11.27l-1.239 1.847c-4.44 5.892-10.574 9.28-17.76 10.778-8.146-1.697-14.389-5.744-19-12.625l-1.146-1.629c-2.276-3.81-3.095-7.492-3.699-11.874-1.535-10.82-5.307-20.162-9.656-30.122a2809 2809 0 0 1-3.395-7.98q-1.188-2.798-2.38-5.59c-4.845-11.369-9.434-22.839-14.038-34.305a8875 8875 0 0 0-3.616-8.994 2731 2731 0 0 1-2.155-5.368A416 416 0 0 0 84 56c-2.392 0-5.085 2.696-7 4m-10 9.625C52.74 84.018 43.468 101.572 38 121l-.969 3.29c-4.259 17.153-4.025 37.754.97 54.71l1.03 3.664c8.693 28.368 27.104 52.53 52.97 67.336l1.871 1.091c15.088 8.642 32.675 14.215 50.128 13.91 1.783-5.67 1.224-11.815 1.24-17.7.01-2.228.041-4.455.072-6.682q.01-2.136.016-4.272c.01-1.289.02-2.578.028-3.906-.38-3.673-1.148-5.52-3.356-8.44-2.215-1.583-4.444-2.753-6.926-3.86-7.913-3.637-11.154-8.475-14.254-16.409-1.294-4.31-1.1-8.374-.996-12.834-.194-13.317-4.844-24.177-10.012-36.273q-1.409-3.406-2.808-6.817-2.946-7.172-5.926-14.33c-3.193-7.699-6.258-15.445-9.297-23.205l-.764-1.95q-1.874-4.79-3.743-9.58c-2.326-5.96-4.666-11.914-7.005-17.868l-1.225-3.124-1.13-2.884-.98-2.497Q75.477 68.68 74 65c-3.3 0-4.713 2.37-7 4.625M226 65l-.735 1.87c-20.747 52.844-20.747 52.844-27.774 70.647q-1.848 4.68-3.679 9.368c-2.384 6.083-4.78 12.142-7.468 18.1-4.297 9.628-6.234 17.694-6.047 28.335.092 7.79-1.846 14.728-6.547 21.055-3.309 3.158-6.616 4.78-10.75 6.625-4.143 2.117-5.958 3.8-8 8-.428 3.398-.428 3.398-.328 7.093l.005 2.028q.01 2.114.042 4.226c.031 2.146.04 4.291.046 6.438-.002 8.166-.002 8.166 1.235 16.215 28.063.526 54.686-13.284 74.672-32.219 20.198-19.718 33.828-47.028 34.63-75.516.283-33.936-8.572-63.256-32.74-88.015-2.794-3.222-2.794-3.222-6.562-4.25"/><path fill="#29548a" d="M245 106c5.699 4.786 9.276 10.759 10.3 18.17.136 2.244.168 4.457.138 6.705l-.028 2.39c-.252 8.499-1.933 14.739-8.222 20.735-5.575 4.387-11.155 5.606-18.188 5-6.786-1.498-11.207-3.788-15.152-9.738-5.303-8.812-5.333-20.586-3.129-30.492 2.574-6.863 6.676-11.468 13.281-14.77 7.128-2.063 14.444-1.463 21 2m-18 9c-4.675 7.618-4.844 16.157-3.25 24.75.928 3.764 1.952 5.989 5.25 8.25 2.394 1.162 2.394 1.162 5 1 3.504-2.2 5.467-4.192 7-8 1.452-8.744 1.875-17.241-2.812-25-3.627-3.316-7.158-4.089-11.188-1"/><path fill="#29548a" d="M145.816 46.902q2.373.011 4.746.035l2.443.014q2.999.019 5.995.05l4.535 16.057q.768 2.724 1.54 5.45 2.16 7.653 4.31 15.31.813 2.882 1.64 5.757l.83 2.936.688 2.401C173 97 173 97 173 101h-13c-3-8.625-3-8.625-3-12h-15l-1 7-2 5h-12c.615-6.455 2.081-12.378 3.906-18.59l.863-2.985q.9-3.101 1.805-6.2c.93-3.175 1.848-6.353 2.765-9.532l1.754-6.033.837-2.89.78-2.653c.224-.773.45-1.546.683-2.343 1.142-3.34 1.504-2.772 5.423-2.872M149 58q-1.005 4.404-2 8.812c-.19.834-.382 1.667-.579 2.526l-.546 2.431-.508 2.238c-.458 2.147-.458 2.147-.367 4.993h9c-.702-7.156-2.308-14.019-4-21z"/><path fill="#29548a" d="M51 104h33v10H64v12h20v10H64v22H51z"/><path fill="#29548a" d="M149 98c5.811 3.984 8.84 9.048 11.375 15.5.976 5.465.849 9.645-2.313 14.438-2.824 2.824-4.481 3.25-8.374 3.374-3.334-.048-4.621-.275-7.626-1.937-3.465-3.99-4.106-6.998-3.937-12.25 1.292-7.794 5.582-13.479 10.875-19.125"/><path fill="#29548a" d="M216 203c3.4.577 4.927 1.61 7.25 4.125 3.707 3.884 7.67 7.389 11.75 10.875l-3 4c-4.69-.566-9.345-1.185-14-2l7 8-4 4a2285 2285 0 0 1-8-7.875l-2.312-2.262-2.188-2.168-2.031-1.999C205 216 205 216 205 214c2.105-1.707 2.105-1.707 5-3 3.113.363 3.113.363 6.312 1.312l3.239.926L222 214l-8-7z"/><path fill="#29548a" d="M100.312 218.848 102 220c.16 5.306-.401 10.115-1.437 15.312l-.408 2.166c-1.012 5.237-1.012 5.237-2.155 7.522l-5-2 1-6-2.375-.875C89 235 89 235 87 233c-3.596.323-3.596.323-7 1l-3-4c3.402-2.068 6.824-4.1 10.25-6.125l2.934-1.785 2.832-1.66 2.603-1.556c2.38-.874 2.38-.874 4.693-.026M91 228l1 3 3 1c1.297-1.067 1.297-1.067 1.063-3.563L96 226c-2.323-.185-2.323-.185-5 2"/><path fill="#29548a" d="M194 222c5.153 1.626 9.063 4.779 13.312 8l2.245 1.656 2.119 1.594 1.935 1.453L215 236v2c-1.688 1.125-1.688 1.125-4 2l-2.438-1.062L206 238c-2.695 1.3-2.695 1.3-5 3h-2l1 6-5 2q-.76-4.28-1.5-8.562l-.434-2.424c-.807-4.711-1.412-9.216-1.066-14.014zm3 8 1 6 5-2a90 90 0 0 0-4-4z"/><path fill="#29548a" d="M183 231c2.093 1.518 2.875 2.393 3.398 4.938-.062 5.514-.062 5.514-1.586 8-2.237 1.311-4.255 1.716-6.812 2.062l1 2.25c1 2.75 1 2.75 1 6.75l-5 1c-1.009-3.08-2.006-6.165-3-9.25l-.867-2.645-.821-2.558-.761-2.349C169 237 169 237 169 233c4.41-2.276 9.123-2.849 14-2m-8 5 1 6 5-2-1-4z"/><path fill="#29548a" d="m72 184 6 13-5 1c-3-4.75-3-4.75-3-7l-3 1 2 9-4 1c-3-4.75-3-4.75-3-7l-1.68.875L58.125 197l-2.18 1.125C54 199 54 199 52 199l-1-6c2.933-1.51 5.872-3.006 8.812-4.5l2.526-1.301 2.432-1.23 2.237-1.143C69 184 69 184 72 184"/><path fill="#29548a" d="m233 173 4 2-1 7 1.32-1.094c3.021-2.354 5.023-3.803 8.868-4.406 4.715.838 4.715.838 6.812 3.5.575 3.096.581 5.905 0 9-2 2.562-2 2.562-4 4l-3-2 2-7h-4l-1.812 2c-2.188 2-2.188 2-5.75 2.438C233 188 233 188 231.062 187c-1.707-3.215-1.613-6.488-1.062-10 1.5-2.5 1.5-2.5 3-4"/><path fill="#29548a" d="M112 227c6.377 1.877 12.707 3.857 19 6l-1 5-7-1-6 16-5-1c1.24-6.172 2.896-12.067 5-18l-6-2z"/><path fill="#29548a" d="M83.23 204.335 85 205c0 4 0 4-2.012 6.219l-2.676 2.281-2.637 2.281A453 453 0 0 1 70 222l-4-2c0-3 0-3 1.313-4.55a488 488 0 0 1 5.937-5.2l2.066-1.863 2.012-1.746 1.84-1.609C81 204 81 204 83.23 204.335"/><path fill="#29548a" d="M224 192c4.555.972 8.171 3.156 12.188 5.438l2.232 1.236 2.123 1.197 1.938 1.092C244 202 244 202 245 204l-2 3c-4.555-.972-8.171-3.156-12.188-5.438l-2.232-1.236-2.123-1.197-1.938-1.092C223 197 223 197 222 195z"/></svg>