<svg xmlns="http://www.w3.org/2000/svg" width="1200" height="1200" fill="none" viewBox="0 0 1200 1200">
  <rect width="1200" height="1200" fill="#f8fffe" rx="60"/>
  <g transform="translate(600, 600)">
    <!-- SafeLeafKitchen Leaf Icon -->
    <path d="M-150 -200 Q-100 -220 -50 -200 Q0 -180 50 -150 Q100 -100 120 -30 Q130 20 120 70 Q100 120 50 150 Q0 180 -50 150 Q-100 120 -120 70 Q-130 20 -120 -30 Q-100 -100 -150 -200 Z" fill="#22C55E" opacity="0.9"/>
    <!-- Leaf veins -->
    <path d="M-120 -150 Q-60 -120 0 -100 Q60 -80 100 -40" stroke="#16a34a" stroke-width="3" fill="none" opacity="0.7"/>
    <path d="M-100 -100 Q-40 -80 20 -60 Q80 -40 110 0" stroke="#16a34a" stroke-width="2" fill="none" opacity="0.6"/>
    <path d="M-80 -50 Q-20 -30 40 -10 Q100 10 120 50" stroke="#16a34a" stroke-width="2" fill="none" opacity="0.5"/>
  </g>
  <!-- SafeLeafKitchen Text -->
  <text x="600" y="900" text-anchor="middle" font-family="Arial, sans-serif" font-size="48" font-weight="bold" fill="#22C55E">SafeLeafKitchen</text>
  <text x="600" y="950" text-anchor="middle" font-family="Arial, sans-serif" font-size="24" fill="#16a34a">AI-Powered Leaf Recognition</text>
</svg>